<svg width="795" height="437" viewBox="0 0 795 437" fill="none" xmlns="http://www.w3.org/2000/svg">
<g clip-path="url(#clip0)">
<path d="M548.433 347.505C548.433 347.505 549.962 370.646 546.903 374.503C546.903 374.503 614.194 386.845 622.605 382.988C631.016 379.131 627.193 372.96 622.605 370.646C618.017 368.332 595.077 359.847 592.018 343.648C592.018 343.648 601.959 339.02 569.843 345.191C537.727 351.362 548.433 347.505 548.433 347.505Z" fill="#DC9BA3"/>
<path opacity="0.05" d="M548.433 347.505C548.433 347.505 549.962 370.646 546.903 374.503C546.903 374.503 614.194 386.845 622.605 382.988C631.016 379.131 627.193 372.96 622.605 370.646C618.017 368.332 595.077 359.847 592.018 343.648C592.018 343.648 601.959 339.02 569.843 345.191C537.727 351.362 548.433 347.505 548.433 347.505Z" fill="black"/>
<path d="M286.007 25.2549L285.717 25.3937C271.836 31.9984 259.762 41.9198 250.542 54.2972C245.327 61.2396 238.919 67.858 232.825 68.9533C219.29 71.36 119.769 175.774 143.657 272.952C167.546 370.129 306.906 374.141 306.906 374.141C306.906 374.141 336.544 379.209 353.55 389.344C357.521 391.713 361.96 393.172 366.552 393.617C371.144 394.062 375.777 393.483 380.122 391.921C400.371 384.654 433.649 374.117 448.651 377.357C470.941 382.178 661.993 301.863 661.993 301.863C661.993 301.863 582.376 224.725 465.344 226.368C465.344 226.368 280.639 96.2601 287.009 42.4489L286.007 25.2549Z" fill="#00587A"/>
<path opacity="0.1" d="M286.007 25.2549L285.717 25.3937C271.836 31.9984 259.762 41.9198 250.542 54.2972C245.327 61.2396 238.919 67.858 232.825 68.9533C219.29 71.36 119.769 175.774 143.657 272.952C167.546 370.129 306.906 374.141 306.906 374.141C306.906 374.141 336.544 379.209 353.55 389.344C357.521 391.713 361.96 393.172 366.552 393.617C371.144 394.062 375.777 393.483 380.122 391.921C400.371 384.654 433.649 374.117 448.651 377.357C470.941 382.178 661.993 301.863 661.993 301.863C661.993 301.863 582.376 224.725 465.344 226.368C465.344 226.368 280.639 96.2601 287.009 42.4489L286.007 25.2549Z" fill="black"/>
<path d="M286.153 25.0698L267.036 43.5829C267.036 43.5829 252.507 72.1238 239.508 74.4379C226.509 76.752 130.926 177.031 153.866 270.367C176.806 363.704 310.622 367.561 310.622 367.561C310.622 367.561 338.471 372.32 354.858 381.847C358.831 384.193 363.262 385.642 367.844 386.094C372.426 386.545 377.051 385.988 381.399 384.462C400.891 377.519 432.464 367.561 446.725 370.646C468.135 375.275 651.655 298.137 651.655 298.137C651.655 298.137 575.188 224.085 462.782 225.628C462.782 225.628 285.38 100.665 291.498 48.9825L286.153 25.0698Z" fill="#00587A"/>
<path opacity="0.1" d="M414.068 321.132C437.617 297.377 421.955 243.061 379.085 199.815C336.215 156.568 282.372 140.768 258.823 164.524C235.274 188.28 250.936 242.596 293.806 285.842C336.676 329.088 390.519 344.888 414.068 321.132Z" fill="black"/>
<path d="M286.153 123.035C286.153 123.035 294.564 136.919 289.211 163.918C283.859 190.916 302.975 190.916 302.975 190.916H341.208L354.208 156.975L335.856 158.518C335.856 158.518 323.621 155.432 328.974 126.892L286.153 123.035Z" fill="#FFD2D9"/>
<path d="M400.852 90.6369C395.003 109.42 387.669 132.291 383.754 144.494L380.971 153.118L355.737 126.892C355.737 126.892 356.846 124.292 358.505 120.651C362.198 112.583 368.629 99.4152 371.795 98.3507C371.795 98.3507 336.62 96.0365 325.915 104.522C315.21 113.007 318.268 81.3804 318.268 81.3804C318.268 81.3804 338.914 79.8376 346.561 75.2094C354.208 70.5811 395.5 65.9529 395.5 65.9529C395.5 65.9529 409.264 63.6387 400.852 90.6369Z" fill="#FFD2D9"/>
<path opacity="0.1" d="M262.448 323.592C262.448 323.592 327.444 293.509 350.384 298.137Z" fill="black"/>
<path opacity="0.1" d="M195.922 252.625C195.922 252.625 274.683 249.54 317.504 277.309Z" fill="black"/>
<path opacity="0.1" d="M234.92 284.252C234.92 284.252 296.858 268.824 329.738 274.224Z" fill="black"/>
<path d="M630.251 317.421L624.899 356.762L611.135 355.219C611.135 355.219 610.301 354.447 608.887 353.152C605.178 349.858 597.463 343.401 590.076 339.884C587.577 338.597 584.867 337.782 582.078 337.477L597.371 314.336C601.092 315.742 604.907 316.881 608.787 317.745C612.818 318.698 616.943 319.19 621.083 319.211C624.23 319.27 627.353 318.66 630.251 317.421Z" fill="#FFD2D9"/>
<path d="M592.018 345.191C585.136 351.362 553.785 338.248 548.432 358.304L543.508 339.282L528.345 280.742L526.257 272.681L513.625 272.134L368.66 265.893L360.432 265.554L356.104 265.369L361.847 262.499L400.08 243.384C400.08 243.384 413.844 242.412 432.846 239.782C461.643 235.802 502.43 228.019 525.462 214.08C563.695 190.939 578.224 268.848 578.224 268.848C578.224 268.848 584.035 288.618 588.47 308.095C590.581 317.352 592.378 326.608 593.058 333.597C593.708 339.529 593.509 343.856 592.018 345.191Z" fill="#E9E9EF"/>
<path opacity="0.05" d="M592.018 345.191C585.136 351.362 553.785 338.248 548.432 358.304L543.508 339.282L528.345 280.742L526.257 272.682L513.258 271.91L373.171 263.186L364.523 262.646L361.862 262.484L358.413 262.268L400.088 243.369C400.088 243.369 413.852 242.397 432.854 239.767C461.651 235.787 502.438 228.003 525.47 214.065C563.703 190.923 578.231 268.832 578.231 268.832C578.231 268.832 584.043 288.603 588.478 308.08C590.588 317.336 592.385 326.593 593.066 333.582C593.708 339.529 593.509 343.856 592.018 345.191Z" fill="black"/>
<path opacity="0.1" d="M608.787 317.745L595.406 333.574L590.053 339.884C587.554 338.597 584.844 337.782 582.055 337.477L597.348 314.336C601.077 315.743 604.899 316.882 608.787 317.745V317.745Z" fill="black"/>
<path d="M608.076 315.879L593.112 333.574L585.901 342.105V344.42C577.077 346.471 549.572 340.624 543.508 339.282C542.743 339.12 542.315 339.02 542.315 339.02C524.728 339.791 459.731 301.223 459.731 301.223C459.731 301.223 388.618 313.565 354.208 310.479C334.992 308.751 329.608 301.739 328.599 295.877C328.155 292.979 328.551 290.014 329.738 287.338L360.432 265.554L364.508 262.661L371.015 258.033C371.015 258.033 382.324 255.449 396.692 252.248C419.135 247.257 449.049 240.77 455.105 240.299C465.046 239.528 490.28 248.013 504.808 264.983C507.309 267.647 510.136 269.98 513.22 271.926L513.617 272.188C517.701 274.919 522.732 277.827 528.337 280.796C546.85 290.632 571.525 301.192 588.493 308.126C600.085 312.824 608.076 315.879 608.076 315.879Z" fill="#E9E9EF"/>
<path opacity="0.1" d="M630.251 317.421L624.899 356.762L611.135 355.219C611.135 355.219 610.301 354.447 608.887 353.152C611.945 353.221 616.962 352.334 618.017 345.962C618.017 345.962 612.718 327.256 621.076 319.211C624.225 319.271 627.351 318.661 630.251 317.421V317.421Z" fill="black"/>
<path d="M619.546 345.962C619.546 345.962 611.9 318.964 629.487 315.878L658.544 327.449L692.189 329.763C692.189 329.763 700.975 344.234 686.89 360.433C683.031 364.826 678.333 368.388 673.078 370.906C667.822 373.424 662.117 374.847 656.304 375.089L619.539 376.825L608.069 352.912C608.069 352.912 618.017 355.219 619.546 345.962Z" fill="#DC9BA3"/>
<path opacity="0.1" d="M432.853 239.767C429.03 240.901 413.064 245.707 396.731 252.233C388.66 255.367 380.798 259.023 373.194 263.178C371.611 264.073 370.136 264.976 368.683 265.886C364.401 268.624 360.952 271.432 358.819 274.217C349.383 286.559 335.519 293.162 328.622 295.869C328.178 292.972 328.574 290.006 329.761 287.33L360.432 265.554L356.104 265.369L361.847 262.5L358.398 262.284L400.072 243.385C400.072 243.385 413.859 242.413 432.853 239.767Z" fill="black"/>
<path opacity="0.1" d="M383.754 144.494L380.971 153.118L355.737 126.891C355.737 126.891 356.846 124.292 358.505 120.651C361.694 127.478 376.926 139.38 383.754 144.494Z" fill="black"/>
<path d="M292.713 157.307C291.811 154.692 291.151 151.999 290.741 149.261L257.86 160.832C257.86 160.832 235.302 178.188 237.596 215.985C237.596 215.985 265.507 205.572 277.741 217.914L277.994 220.089C280.581 241.654 290.04 261.789 304.948 277.464C311.065 283.905 316.762 291.171 319.798 298.137C319.798 298.137 341.208 291.966 354.208 274.996C367.207 258.025 429.145 240.284 429.145 240.284C429.145 240.284 396.264 241.055 391.676 229.485C387.088 217.914 371.795 193.23 377.148 173.945C382.5 154.661 385.559 148.49 385.559 148.49C385.559 148.49 354.208 126.12 356.502 119.178L336.62 142.319L327.444 145.405C328.165 147.195 328.531 149.111 328.523 151.043C329.012 172.017 299.68 177.062 292.713 157.307Z" fill="#CEDAD5"/>
<path d="M320.18 315.493C320.18 315.493 394.353 284.638 454.761 313.95L440.233 344.805L370.648 346.348L320.18 315.493Z" fill="#008891"/>
<path opacity="0.1" d="M327.811 137.027C328.045 134.144 328.433 131.275 328.974 128.434L286.153 124.577C286.153 124.577 289.119 127.161 290.412 136.803C295.436 139.812 301.301 143.862 307.563 143.862C314.871 143.873 321.982 141.473 327.811 137.027Z" fill="black"/>
<path d="M307.946 142.704C326.527 142.704 341.591 127.509 341.591 108.764C341.591 90.0189 326.527 74.8232 307.946 74.8232C289.364 74.8232 274.3 90.0189 274.3 108.764C274.3 127.509 289.364 142.704 307.946 142.704Z" fill="#FFD2D9"/>
<path d="M283.094 117.635H287.682V104.521L292.27 90.6365C292.27 90.6365 315.21 79.8372 325.915 82.1514L334.326 89.8651C334.326 89.8651 336.62 71.3521 322.856 64.4097C309.093 57.4673 284.623 60.5529 278.506 65.9525C272.389 71.3521 262.448 80.6086 270.095 106.064L272.389 112.235C272.389 112.235 281.565 109.15 283.094 117.635Z" fill="#844F6E"/>
<g opacity="0.05">
<path opacity="0.05" d="M342.524 135.454L345.032 134.613L356.609 121.168C356.381 120.531 356.355 119.839 356.532 119.186L342.524 135.454Z" fill="black"/>
<path opacity="0.05" d="M326.427 160.331C332.491 157.631 337.133 151.768 336.926 143.36C336.926 142.905 336.926 142.473 336.85 142.064L336.605 142.342L327.429 145.428C328.15 147.218 328.516 149.134 328.507 151.066C328.628 154.285 327.911 157.479 326.427 160.331V160.331Z" fill="black"/>
<path opacity="0.05" d="M415.626 239.651C396.463 246.378 370.51 256.969 362.619 267.282C362.428 267.537 362.229 267.776 362.03 268.053C383.028 253.528 429.145 240.284 429.145 240.284C424.63 240.332 420.117 240.12 415.626 239.651V239.651Z" fill="black"/>
<path opacity="0.05" d="M328.209 290.423C325.15 283.481 319.438 276.192 313.359 269.751C298.451 254.075 288.992 233.941 286.405 212.376L286.153 210.2C273.918 197.858 246.008 208.272 246.008 208.272C244.555 184.297 253.096 168.554 259.535 160.238L257.86 160.832C257.86 160.832 235.302 178.188 237.596 215.986C237.596 215.986 265.507 205.572 277.741 217.914L277.994 220.089C280.581 241.655 290.04 261.789 304.948 277.464C311.065 283.905 316.762 291.172 319.798 298.137C319.798 298.137 338.433 292.738 351.485 278.267C344.45 283.595 336.584 287.704 328.209 290.423V290.423Z" fill="black"/>
</g>
<path d="M319.798 200.172C319.798 200.172 283.094 253.397 263.977 268.825C244.861 284.252 239.508 261.882 239.508 261.882V212.514L273.153 208.657L273.513 213.34L273.918 218.685L305.269 184.745C305.269 184.745 336.62 156.204 342.738 173.174C348.855 190.144 319.798 200.172 319.798 200.172Z" fill="#FFD2D9"/>
<path opacity="0.1" d="M273.513 213.339C268.92 216.035 264.048 218.215 258.984 219.842C251.758 222.087 243.477 219.726 239.485 218.299V212.537L273.13 208.68L273.513 213.339Z" fill="black"/>
<path d="M239.126 207.5L237.115 215.762C237.115 215.762 249.066 221.385 259.007 218.3C268.948 215.214 276.594 209.815 278.124 209.043C279.653 208.272 272.006 199.787 272.006 199.787L239.126 207.5Z" fill="#CEDAD5"/>
<path opacity="0.1" d="M459.349 301.608C464.448 297.663 470.123 294.54 476.172 292.351C481.919 290.358 487.333 287.497 492.23 283.866" fill="black"/>
<path opacity="0.2" d="M692.189 329.763L690.935 329.678C692.755 334.306 695.386 345.715 684.596 358.142C680.737 362.534 676.039 366.096 670.784 368.615C665.528 371.133 659.823 372.556 654.01 372.798L618.399 374.48L619.539 376.848L656.311 375.089C662.125 374.847 667.83 373.424 673.085 370.906C678.341 368.387 683.039 364.825 686.898 360.433C700.975 344.234 692.189 329.763 692.189 329.763Z" fill="white"/>
<path opacity="0.05" d="M518.794 369.489H518.679C518.779 371.31 518.954 375.066 518.985 379.193C519.015 375.568 518.901 372.004 518.794 369.489Z" fill="#00FF00"/>
<path opacity="0.05" d="M562.349 362.824C562.456 363.292 562.576 363.752 562.709 364.205C563.458 363.773 564.536 362.955 562.349 362.824Z" fill="#00FF00"/>
<path opacity="0.2" d="M622.605 380.674C614.767 384.269 555.827 373.801 547.813 372.351C547.652 373.122 547.343 373.853 546.903 374.503C546.903 374.503 614.194 386.845 622.605 382.988C626.933 381.006 628.019 378.406 627.43 376.046C626.986 377.689 625.549 379.324 622.605 380.674Z" fill="white"/>
<path opacity="0.05" d="M518.68 369.497C518.641 368.725 518.611 368.332 518.611 368.332C518.611 368.332 514.718 369.736 518.68 369.497Z" fill="#00FF00"/>
<path opacity="0.1" d="M337.706 91.7939H291.184C289.461 91.7939 288.064 93.203 288.064 94.9412V114.874C288.064 116.612 289.461 118.021 291.184 118.021H337.706C339.429 118.021 340.826 116.612 340.826 114.874V94.9412C340.826 93.203 339.429 91.7939 337.706 91.7939Z" fill="black"/>
<path opacity="0.1" d="M288.493 100.279H270.049C269.018 100.279 268.183 101.121 268.183 102.161V108.425C268.183 109.464 269.018 110.307 270.049 110.307H288.493C289.523 110.307 290.358 109.464 290.358 108.425V102.161C290.358 101.121 289.523 100.279 288.493 100.279Z" fill="black"/>
<path d="M337.706 91.0225H291.184C289.461 91.0225 288.064 92.4315 288.064 94.1697V114.102C288.064 115.84 289.461 117.249 291.184 117.249H337.706C339.429 117.249 340.826 115.84 340.826 114.102V94.1697C340.826 92.4315 339.429 91.0225 337.706 91.0225Z" fill="#7679B4"/>
<path d="M337.653 92.5649H297.34C295.617 92.5649 294.22 93.974 294.22 95.7122V112.559C294.22 114.297 295.617 115.706 297.34 115.706H337.653C339.376 115.706 340.773 114.297 340.773 112.559V95.7122C340.773 93.974 339.376 92.5649 337.653 92.5649Z" fill="#565388"/>
<path d="M288.493 99.5073H270.049C269.018 99.5073 268.183 100.35 268.183 101.389V107.653C268.183 108.693 269.018 109.535 270.049 109.535H288.493C289.523 109.535 290.358 108.693 290.358 107.653V101.389C290.358 100.35 289.523 99.5073 288.493 99.5073Z" fill="#565388"/>
<path opacity="0.1" d="M329.326 92.5498C337.6 87.5028 344.32 80.2327 348.733 71.5529C349.245 70.5424 349.734 69.4085 349.452 68.3132C348.909 66.215 346.194 65.8448 344.237 64.9423C340.589 63.2529 339.052 58.9872 336.659 55.7397C334.613 53.031 331.862 50.9479 328.713 49.7222C325.563 48.4965 322.138 48.1764 318.819 48.7974C315.332 49.507 312.105 51.2503 308.588 51.7749C301.002 52.8934 292.729 48.2574 285.916 51.7749C282.811 53.387 280.708 56.4031 278.858 59.4115C274.216 66.9015 268.397 74.839 272.618 83.625C275.042 88.6466 278.911 92.8121 284.348 94.2777C289.785 95.7433 296.078 94.5245 301.607 93.9151C306.156 93.4215 310.92 92.3724 315.5 92.8584C320.861 93.4446 324.21 95.6507 329.326 92.5498Z" fill="black"/>
<path d="M329.326 91.0068C337.6 85.9598 344.32 78.6898 348.733 70.01C349.245 68.9995 349.734 67.8656 349.452 66.7702C348.909 64.6721 346.194 64.3018 344.237 63.3993C340.589 61.71 339.052 57.4443 336.659 54.1968C334.613 51.488 331.862 49.4049 328.713 48.1792C325.563 46.9536 322.138 46.6334 318.819 47.2544C315.332 47.964 312.105 49.7074 308.588 50.2319C301.002 51.3504 292.729 46.7144 285.916 50.2319C282.811 51.8441 280.708 54.8601 278.858 57.8685C274.216 65.3586 268.397 73.296 272.618 82.082C275.042 87.1037 278.911 91.2691 284.348 92.7347C289.785 94.2003 296.078 92.9815 301.607 92.3722C306.156 91.8785 310.92 90.8294 315.5 91.3154C320.861 91.9016 324.21 94.1078 329.326 91.0068Z" fill="#844F6E"/>
<path opacity="0.2" d="M794.264 179.923L461.643 239.898V59.9745L794.264 0V179.923Z" fill="#00587A"/>
<path opacity="0.2" d="M725.353 20.7576L786.87 10.0586L787.765 37.8667L724.619 48.5194L725.353 20.7576Z" fill="#00587A"/>
<g opacity="0.2">
<path opacity="0.1" d="M605.698 176.012C607.784 175.537 609.925 175.357 612.06 175.48C624.639 175.704 637.692 176.946 650.033 173.166C656.586 171.176 662.467 167.89 669.226 166.478C680.696 164.094 692.166 167.573 703.445 164.673C705.739 164.079 708.545 163.246 710.174 164.141C712.063 165.174 710.725 167.859 713.026 168.538C713.755 168.629 714.472 168.794 715.167 169.031C716.008 169.525 715.481 170.574 714.64 171.245C709.524 175.434 699.117 172.649 692.709 176.035C691.287 176.807 690.216 177.779 688.886 178.581C686.78 179.676 684.548 180.505 682.241 181.049L646.661 191.077C638.143 193.476 629.51 195.906 620.701 196.963C611.892 198.02 602.754 197.588 596.3 194.572C594.916 193.924 593.632 193.129 593.104 192.049C590.596 186.958 596.836 178.388 605.698 176.012Z" fill="#252223"/>
<path opacity="0.3" d="M574.309 104.953L604.077 128.696L633.846 152.431L584.953 161.757L536.06 171.075L555.184 138.014L574.309 104.953Z" fill="#6C63FF"/>
<path opacity="0.3" d="M605.262 99.4609L635.031 123.196L664.799 146.939L615.906 156.257L567.014 165.583L586.138 132.522L605.262 99.4609Z" fill="#6C63FF"/>
<path opacity="0.2" d="M651.303 50.0698L593.854 160.469L702.803 139.079L743.062 131.404L651.303 50.0698Z" fill="#6C63FF"/>
<path opacity="0.1" d="M743.062 131.404L702.803 139.079L651.303 50.0698L743.062 131.404Z" fill="black"/>
<path opacity="0.2" d="M681.591 101.251C681.398 100.532 680.958 99.9052 680.351 99.4817C679.744 99.0581 679.007 98.865 678.272 98.9366C678.272 98.9366 679.037 92.8735 666.649 95.3188C666.436 94.8815 666.127 94.4993 665.744 94.2017C665.362 93.9041 664.916 93.6989 664.443 93.6021C663.97 93.5052 663.48 93.5192 663.013 93.643C662.546 93.7668 662.113 93.997 661.748 94.316L661.22 91.5005C661.22 91.5005 654.43 95.4268 661.626 101.027L662.49 105.655C662.511 105.772 662.547 105.886 662.597 105.995C662.635 106.079 662.666 106.167 662.688 106.257C663.017 107.607 665.434 118.306 659.943 121.962C654.063 125.935 650.698 113.693 650.698 113.693C646.875 97.7024 639.596 97.7641 637.867 98.0186C637.661 98.0186 637.447 98.0649 637.233 98.0803C636.422 98.1266 633.906 99.0368 632.943 108.255C631.788 119.316 627.59 116.555 627.59 116.555C618.177 111.379 611.532 115.907 611.532 115.907C595.199 125.595 609.085 143.769 611.953 147.217C610.875 152.701 608.696 162.367 606.6 162.768C603.633 163.331 598.082 173.837 613.115 190.175L617.114 189.404C617.114 189.404 604.75 173.112 614.484 165.005C614.273 165.602 614.017 166.182 613.719 166.741C608.267 176.144 626.818 187.475 626.818 187.475L631.268 186.627L620.991 173.567C616.908 168.168 624.524 163.755 624.524 163.755C633.539 156.15 628.898 146.97 628.898 146.97L649.941 142.959C647.342 148.76 643.518 163.015 656.227 181.79L659.194 181.227L656.77 158.456C656.77 158.456 657.535 153.558 662.688 146.168C664.738 155.424 669.081 171.4 675.642 178.087L679.939 177.27C679.939 177.27 674.701 162.112 674.587 156.443C674.533 154.129 674.434 151.853 674.227 149.57L673.157 137.629C674.893 136.519 676.254 134.903 677.06 132.995C677.865 131.087 678.077 128.977 677.668 126.945L673.715 106.226C673.659 105.934 673.663 105.634 673.726 105.344C673.789 105.054 673.911 104.78 674.082 104.539C674.254 104.298 674.473 104.095 674.725 103.942C674.978 103.789 675.258 103.689 675.55 103.65L680.62 102.955C680.803 102.923 680.977 102.85 681.129 102.743C681.281 102.635 681.408 102.495 681.501 102.332C681.593 102.17 681.649 101.988 681.665 101.802C681.681 101.615 681.655 101.427 681.591 101.251V101.251Z" fill="url(#paint0_linear)"/>
<path opacity="0.2" d="M660.945 139.326C660.945 139.326 665.701 167.913 675.007 177.386L679.228 176.614C679.228 176.614 674.09 161.734 673.952 156.188C673.898 153.936 673.807 151.683 673.6 149.439L671.872 130.154L660.945 139.326Z" fill="#535461"/>
<path opacity="0.05" d="M660.945 139.326C660.945 139.326 665.701 167.913 675.007 177.386L679.228 176.614C679.228 176.614 674.09 161.734 673.952 156.188C673.898 153.936 673.807 151.683 673.6 149.439L671.872 130.154L660.945 139.326Z" fill="black"/>
<path opacity="0.2" d="M613.161 143.422C613.161 143.422 610.103 161.788 607.212 162.344C604.322 162.899 598.847 173.212 613.612 189.249L617.543 188.478C617.543 188.478 603.932 170.551 616.878 163.215C616.87 163.239 619.126 147.904 613.161 143.422Z" fill="#535461"/>
<path opacity="0.05" d="M613.161 143.422C613.161 143.422 610.103 161.788 607.212 162.344C604.322 162.899 598.847 173.212 613.612 189.249L617.543 188.478C617.543 188.478 603.932 170.551 616.878 163.215C616.87 163.239 619.126 147.904 613.161 143.422Z" fill="black"/>
<path opacity="0.2" d="M662.115 106.311L661.266 101.791C654.208 96.2983 660.869 92.4414 660.869 92.4414L661.779 97.2856C678.502 92.426 677.607 99.7386 677.607 99.7386C678.325 99.6648 679.046 99.8496 679.643 100.26C680.239 100.671 680.672 101.282 680.865 101.983C680.927 102.16 680.949 102.348 680.929 102.534C680.91 102.72 680.85 102.899 680.753 103.059C680.657 103.219 680.526 103.354 680.37 103.457C680.215 103.559 680.039 103.625 679.855 103.65L674.877 104.336C674.591 104.375 674.315 104.472 674.067 104.622C673.819 104.773 673.604 104.972 673.435 105.209C673.266 105.446 673.146 105.715 673.084 106C673.022 106.285 673.018 106.58 673.073 106.866L676.949 127.207C677.231 128.663 677.196 130.163 676.844 131.603C676.493 133.043 675.835 134.389 674.915 135.546C673.478 137.328 671.176 138.932 667.506 139.518L629.089 146.847C629.089 146.847 633.677 155.864 624.792 163.323C624.792 163.323 617.313 167.635 621.32 172.958L631.406 185.778L627.04 186.611C627.04 186.611 608.833 175.488 614.186 166.254C615.639 163.32 616.291 160.048 616.075 156.775C615.858 153.503 614.781 150.347 612.955 147.633C612.955 147.633 594.297 126.868 612.06 116.331C612.06 116.331 618.613 111.888 627.85 116.971C627.85 116.971 631.972 119.679 633.104 108.825C634.044 99.7772 636.514 98.8824 637.309 98.8361C637.516 98.8361 637.722 98.8361 637.929 98.7744C639.626 98.5276 646.791 98.4659 650.53 114.163C650.53 114.163 653.834 126.151 659.592 122.317C664.982 118.73 662.65 108.224 662.291 106.889C662.268 106.802 662.238 106.717 662.199 106.635V106.635C662.159 106.53 662.13 106.422 662.115 106.311V106.311Z" fill="#535461"/>
<path opacity="0.2" d="M651.272 140.105C651.272 140.105 639.45 156.651 655.929 180.988L658.842 180.432L656.464 158.062C656.464 158.062 657.871 148.675 670.633 136.356L651.272 140.105Z" fill="#535461"/>
<path opacity="0.2" d="M663.991 100.706C665.68 100.384 666.79 98.742 666.471 97.0382C666.152 95.3345 664.524 94.2143 662.835 94.5362C661.146 94.8582 660.036 96.5003 660.355 98.204C660.674 99.9078 662.302 101.028 663.991 100.706Z" fill="#535461"/>
<path opacity="0.2" d="M650.309 118.174C653.903 112.659 651.762 112.297 650.37 110.846C649.422 109.859 641.454 109.481 636.491 109.342C636.384 108.956 636.216 108.309 636.017 107.522C636.017 107.522 635.619 106.072 635.436 105.053H635.749L635.704 104.752L641.821 104.421C647.044 104.205 647.296 102.107 647.296 102.107C647.418 98.5043 641.523 101.96 641.523 101.96C640.353 102.539 637.248 102.107 634.824 101.628C634.757 101.117 634.718 100.602 634.709 100.086C634.739 99.288 634.688 98.4893 634.557 97.7021C634.471 97.0224 634.207 96.3781 633.792 95.8354C631.999 93.6732 629.926 91.7636 627.629 90.158C627.493 88.7969 627.618 87.4222 627.996 86.1083C628.923 85.6277 629.674 84.8595 630.136 83.9167C630.599 82.9738 630.749 81.9061 630.565 80.8707C630.476 80.3964 630.316 79.9386 630.091 79.5131C631.184 78.0475 630.672 75.5405 629.158 74.1674C628.997 74.0208 628.823 73.8892 628.638 73.774C627.656 73.1116 626.466 72.837 625.296 73.0026C623.991 73.2177 622.752 73.7294 621.672 74.4991C620.38 75.3631 619.126 76.4584 617.581 76.6281C616.465 76.7515 615.287 76.3658 614.239 76.713C612.855 77.1604 612.144 78.6491 611.701 80.0145C611.257 81.3798 610.829 82.884 609.628 83.7016C608.581 84.4113 607.227 84.4036 605.996 84.7044C605.137 84.8869 604.335 85.28 603.661 85.849C602.988 86.418 602.463 87.1456 602.135 87.9673C601.892 88.7074 601.897 89.5073 602.149 90.2443C602.4 90.9813 602.884 91.6149 603.526 92.0479C603.729 92.1977 603.95 92.3197 604.184 92.4105C604.446 92.4919 604.701 92.5924 604.949 92.7113C605.017 92.7616 605.074 92.825 605.117 92.8979C605.16 92.9707 605.189 93.0515 605.201 93.1356C605.205 93.3461 605.16 93.5546 605.071 93.7449C604.929 94.1703 604.875 94.6208 604.913 95.0681C604.951 95.5154 605.08 95.9499 605.293 96.3445C605.434 96.6326 605.654 96.8736 605.927 97.0387C606.004 97.1035 606.089 97.1579 606.18 97.2007C607.074 97.5941 608.183 96.707 609.07 97.1082H609.139C609.484 97.4842 609.781 97.9013 610.026 98.3501C610.236 98.615 610.496 98.8352 610.791 98.998C611.569 99.5122 612.51 99.7156 613.429 99.5688C614.596 99.342 615.71 98.8917 616.709 98.2421C618.063 97.4707 619.538 96.3985 619.646 94.8712C619.707 93.9378 619.225 93.0353 619.34 92.1096C619.402 91.6675 619.579 91.2497 619.852 90.8986C619.699 91.6805 619.645 92.4788 619.691 93.2744C619.719 93.9196 619.796 94.5618 619.921 95.1951C620.211 96.8509 620.802 98.4383 621.664 99.8774C622.823 101.75 623.673 103.8 624.18 105.948C624.361 106.895 624.376 107.866 624.226 108.818C623.736 111.579 623.79 112.767 623.928 113.268C624.012 113.947 624.234 113.955 624.234 113.955H624.287C624.311 114.423 624.429 114.881 624.634 115.301C624.84 115.722 625.127 116.096 625.48 116.4C632.4 119.285 646.478 115.197 646.478 115.197C643.633 116.207 641.599 124.068 641.599 124.068C641.289 125.779 640.582 127.391 639.535 128.773V128.773C638.005 128.542 636.201 130.27 634.839 131.28L634.725 131.357C634.592 131.449 634.481 131.568 634.398 131.706C634.315 131.845 634.262 131.999 634.243 132.16C634.224 132.321 634.24 132.484 634.288 132.638C634.337 132.792 634.418 132.934 634.526 133.054L639.94 139.04C643.06 141.269 644.857 141.416 645.361 140.783C645.69 140.367 645.468 139.626 644.704 138.909C642.853 137.173 643.121 131.542 643.174 131.064C644.023 129.136 647.288 122.81 650.309 118.174Z" fill="url(#paint1_linear)"/>
<path opacity="0.2" d="M628.432 85.3988C628.432 85.3988 626.856 89.0474 627.896 92.1869L622.031 89.0474C622.031 89.0474 623.897 88.5383 623.507 84.0566L628.432 85.3988Z" fill="#F9D5C6"/>
<path opacity="0.2" d="M632.362 109.581C632.362 109.581 647.923 109.805 649.246 111.224C650.569 112.644 652.595 113.022 649.246 118.375C645.897 123.728 642.196 131.427 642.196 131.427L638.235 129.599C639.671 128.067 640.621 126.139 640.964 124.06C640.964 124.06 642.846 116.4 645.552 115.436C645.552 115.436 632.27 119.339 625.671 116.485C625.671 116.485 623.912 115.151 624.731 112.258C625.549 109.365 632.362 109.581 632.362 109.581Z" fill="#353535"/>
<path opacity="0.1" d="M623.721 89.1863C623.721 89.1863 619.837 88.2221 620.12 94.2311C620.232 96.409 620.867 98.5267 621.97 100.402C623.232 102.577 625.029 106.319 624.501 109.427C623.737 114.133 624.501 114.14 624.501 114.14L626.489 112.922C629.168 111.271 632.243 110.391 635.382 110.376H636.308C636.308 110.376 634.442 103.619 634.404 100.626C634.404 99.2065 634.404 97.8874 633.555 96.7689C630.901 93.3132 625.579 89.1786 623.721 89.1863Z" fill="black"/>
<path opacity="0.2" d="M623.668 88.9085C623.668 88.9085 619.783 87.9443 620.066 93.9533C620.178 96.1311 620.813 98.2489 621.917 100.124C623.178 102.3 624.975 106.041 624.448 109.149C623.683 113.855 624.448 113.863 624.448 113.863L626.436 112.644C629.115 110.993 632.19 110.113 635.329 110.098H636.254C636.254 110.098 634.388 103.341 634.35 100.348C634.35 98.9286 634.35 97.6096 633.501 96.4911C630.848 93.0199 625.526 88.9085 623.668 88.9085Z" fill="#409CD6"/>
<path opacity="0.1" d="M622.222 93.722C622.383 93.2785 622.651 92.8826 623.002 92.5706C623.353 92.2586 623.777 92.0404 624.233 91.9361C624.689 91.8317 625.165 91.8445 625.615 91.9732C626.065 92.1019 626.476 92.3425 626.81 92.673C627.41 93.3087 627.887 94.0516 628.217 94.8637C630.06 99.0754 631.46 101.698 631.46 101.698C632.644 101.875 633.813 102.149 634.954 102.516C635.13 103.958 635.359 105.455 635.359 105.455L630.397 105.701L623.599 97.5712C623.599 97.5712 621.527 95.851 622.222 93.722Z" fill="black"/>
<path opacity="0.2" d="M622.161 93.4212C622.322 92.9777 622.59 92.5818 622.941 92.2698C623.292 91.9578 623.715 91.7396 624.172 91.6353C624.628 91.5309 625.103 91.5437 625.554 91.6724C626.004 91.8012 626.415 92.0417 626.749 92.3722C627.349 93.0079 627.826 93.7508 628.156 94.5629C629.999 98.7746 631.398 101.397 631.398 101.397C631.398 101.397 638.869 103.472 640.796 102.493C640.796 102.493 646.348 99.1526 646.256 102.67C646.256 102.67 646.034 104.691 641.094 104.868L630.343 105.401L623.545 97.2704C623.545 97.2704 621.473 95.5194 622.161 93.4212Z" fill="#F9D5C6"/>
<path opacity="0.1" d="M623.056 86.0392C623.201 85.3373 623.53 85.6072 623.423 84.373L628.347 85.7152C628.143 86.2167 627.974 86.7323 627.843 87.258C627.35 87.4285 626.834 87.5247 626.313 87.5434C625.228 87.7594 623.981 86.556 623.056 86.0392Z" fill="black"/>
<path opacity="0.2" d="M626.553 87.4708C629.126 86.9803 630.817 84.4788 630.331 81.8834C629.845 79.288 627.365 77.5816 624.792 78.072C622.219 78.5624 620.528 81.0639 621.014 83.6593C621.5 86.2547 623.98 87.9612 626.553 87.4708Z" fill="#F9D5C6"/>
<path opacity="0.1" d="M627.613 81.6267C626.772 81.673 625.855 81.403 625.144 81.8504C624.432 82.2978 624.226 83.5243 624.379 84.4808C624.532 85.4373 624.93 86.4015 624.708 87.3503C624.41 88.5922 623.178 89.3559 622.108 90.0115C621.037 90.6672 619.814 91.5543 619.699 92.8039C619.6 93.7064 620.059 94.5935 620.005 95.5037C619.913 96.9925 618.529 98.0184 617.245 98.7744C616.317 99.3957 615.278 99.828 614.186 100.047C613.63 100.147 613.058 100.097 612.528 99.9016C611.997 99.7065 611.527 99.3735 611.166 98.9364C610.822 98.4581 610.615 97.8179 610.08 97.571C609.239 97.1699 608.191 98.0338 607.35 97.6482C607.054 97.4899 606.817 97.2378 606.677 96.9308C606.475 96.5451 606.351 96.1227 606.313 95.6883C606.275 95.2538 606.324 94.8161 606.455 94.4007C606.537 94.2139 606.577 94.0109 606.57 93.8067C606.501 93.3207 605.912 93.1588 605.454 92.9813C604.699 92.6169 604.101 91.9878 603.771 91.2115C603.442 90.4351 603.404 89.5645 603.664 88.7619C603.959 87.9702 604.446 87.2659 605.08 86.7133C605.715 86.1607 606.477 85.7777 607.296 85.5993C608.459 85.3061 609.743 85.3216 610.722 84.6428C611.854 83.8714 612.251 82.3826 612.657 81.0559C613.062 79.7291 613.727 78.2789 615.035 77.8547C616.044 77.523 617.138 77.9009 618.193 77.7929C619.653 77.6387 620.831 76.5742 622.016 75.7411C623.028 74.997 624.199 74.5029 625.434 74.2986C626.053 74.202 626.685 74.2416 627.287 74.4147C627.888 74.5878 628.446 74.8903 628.921 75.3014C631.032 77.2375 631.161 81.4338 627.613 81.6267Z" fill="black"/>
<path opacity="0.2" d="M627.438 81.5112C626.596 81.5574 625.679 81.2875 624.968 81.7349C624.257 82.1823 624.05 83.4087 624.203 84.3652C624.356 85.3217 624.754 86.286 624.532 87.2348C624.234 88.4767 623.002 89.2404 621.932 89.896C620.861 90.5517 619.638 91.4388 619.523 92.6884C619.424 93.5909 619.883 94.478 619.829 95.3882C619.737 96.877 618.353 97.9029 617.069 98.6589C616.141 99.2802 615.102 99.7125 614.01 99.9316C613.457 100.032 612.887 99.9832 612.358 99.7909C611.829 99.5986 611.36 99.2694 610.997 98.8363C610.653 98.358 610.447 97.7178 609.911 97.4709C609.07 97.0698 608.023 97.9338 607.182 97.5481C606.885 97.3898 606.649 97.1377 606.509 96.8307C606.307 96.445 606.183 96.0226 606.145 95.5882C606.107 95.1537 606.155 94.716 606.287 94.3006C606.369 94.1138 606.408 93.9108 606.402 93.7066C606.333 93.2207 605.744 93.0587 605.285 92.8812C604.53 92.5168 603.932 91.8877 603.603 91.1114C603.274 90.335 603.236 89.4644 603.496 88.6618C603.791 87.8701 604.278 87.1658 604.912 86.6132C605.547 86.0606 606.309 85.6776 607.128 85.4992C608.29 85.206 609.575 85.2215 610.554 84.5427C611.685 83.7713 612.083 82.2825 612.488 80.9558C612.894 79.629 613.559 78.1788 614.866 77.7546C615.876 77.4229 616.969 77.8008 618.025 77.6928C619.485 77.5386 620.663 76.4741 621.848 75.641C622.86 74.8969 624.03 74.4028 625.266 74.1985C625.884 74.1019 626.516 74.1415 627.118 74.3146C627.72 74.4877 628.278 74.7902 628.753 75.2013C630.856 77.122 630.986 81.3106 627.438 81.5112Z" fill="#2F302F"/>
<path opacity="0.1" d="M628.829 93.6064C628.829 93.6064 622.712 94.0076 623.232 98.3196C623.752 102.632 621.106 93.4059 621.106 93.4059L623.484 90.8218L626.879 91.2383L628.829 93.6064Z" fill="black"/>
<path opacity="0.2" d="M628.669 93.4829C628.669 93.4829 622.551 93.884 623.071 98.196C623.591 102.508 620.946 93.2824 620.946 93.2824L623.324 90.6982L626.719 91.1148L628.669 93.4829Z" fill="#409CD6"/>
<path opacity="0.2" d="M634.312 132.761L639.466 138.631C642.433 140.822 644.13 140.946 644.604 140.367C644.91 139.966 644.696 139.241 643.97 138.539C642.127 136.765 642.44 130.825 642.44 130.825C641.71 130.848 640.991 130.647 640.378 130.247C639.764 129.847 639.286 129.269 639.007 128.588C637.546 128.357 635.864 130.031 634.58 131.003L634.472 131.08C634.344 131.173 634.237 131.294 634.158 131.432C634.08 131.571 634.031 131.725 634.016 131.884C634.001 132.043 634.019 132.203 634.07 132.355C634.121 132.506 634.204 132.645 634.312 132.761V132.761Z" fill="#409CD6"/>
<path opacity="0.1" d="M642.448 130.841C642.448 130.841 639.512 131.249 639.015 128.604C639.304 129.277 639.785 129.848 640.396 130.246C641.007 130.644 641.721 130.851 642.448 130.841V130.841Z" fill="black"/>
<path opacity="0.1" d="M634.312 132.761L639.466 138.632C642.433 140.822 644.13 140.946 644.604 140.367C643.121 139.904 638.923 138.053 634.595 131.026L634.488 131.103C634.362 131.196 634.257 131.314 634.179 131.45C634.101 131.586 634.052 131.737 634.036 131.893C634.019 132.049 634.035 132.207 634.083 132.357C634.13 132.506 634.208 132.644 634.312 132.761V132.761Z" fill="black"/>
<path opacity="0.2" d="M549.939 178.705C549.939 178.705 536.305 191 567.373 199.987C567.373 199.987 571.426 187.09 562.732 178.867C561.042 177.262 558.828 176.338 556.508 176.27C554.189 176.201 551.925 176.994 550.145 178.496L549.939 178.705Z" fill="#6C63FF"/>
<path opacity="0.2" d="M550.069 178.473C550.069 178.473 565.156 186.102 567.373 199.987" stroke="#535461" stroke-miterlimit="10"/>
<path opacity="0.2" d="M566.517 200.118C566.517 200.118 558.602 184.521 562.051 171.276C563.54 165.717 563.196 159.82 561.072 154.476C560.048 151.951 558.796 149.527 557.333 147.232" stroke="#535461" stroke-width="2" stroke-miterlimit="10"/>
<path opacity="0.2" d="M559.459 138.909C559.841 140.93 557.302 147.494 557.302 147.494C557.302 147.494 552.569 142.319 552.195 140.298C552.012 139.326 552.22 138.321 552.772 137.503C553.324 136.686 554.175 136.123 555.138 135.939C556.102 135.755 557.098 135.965 557.908 136.522C558.719 137.078 559.276 137.937 559.459 138.909Z" fill="#6C63FF"/>
<path opacity="0.2" d="M567.564 148.976C566.8 150.881 561.133 155 561.133 155C561.133 155 559.948 148.058 560.72 146.153C560.904 145.697 561.175 145.282 561.518 144.932C561.861 144.581 562.268 144.303 562.718 144.111C563.167 143.92 563.65 143.82 564.138 143.817C564.625 143.814 565.109 143.908 565.561 144.093C566.013 144.278 566.424 144.552 566.771 144.897C567.118 145.243 567.395 145.654 567.584 146.108C567.774 146.561 567.873 147.048 567.876 147.54C567.879 148.032 567.786 148.52 567.603 148.976H567.564Z" fill="#6C63FF"/>
<path opacity="0.2" d="M570.89 168.183C569.269 169.432 562.319 170.111 562.319 170.111C562.319 170.111 564.773 163.516 566.387 162.266C567.164 161.665 568.147 161.4 569.119 161.529C570.09 161.659 570.971 162.172 571.567 162.957C572.163 163.741 572.426 164.733 572.298 165.713C572.17 166.693 571.661 167.581 570.883 168.183H570.89Z" fill="#6C63FF"/>
<path opacity="0.2" d="M570.164 183.286C568.78 184.829 562.044 186.642 562.044 186.642C562.044 186.642 563.351 179.7 564.743 178.219C565.073 177.859 565.469 177.569 565.91 177.365C566.351 177.161 566.828 177.046 567.313 177.027C567.798 177.008 568.282 177.086 568.737 177.256C569.192 177.426 569.609 177.685 569.965 178.018C570.321 178.351 570.609 178.751 570.812 179.196C571.014 179.641 571.128 180.121 571.146 180.611C571.165 181.1 571.088 181.588 570.919 182.047C570.751 182.506 570.494 182.927 570.164 183.286V183.286Z" fill="#6C63FF"/>
<path opacity="0.2" d="M553.579 156.844C555.284 157.978 562.258 158.163 562.258 158.163C562.258 158.163 559.36 151.76 557.67 150.619C557.264 150.349 556.811 150.162 556.334 150.069C555.857 149.976 555.367 149.978 554.891 150.077C554.415 150.175 553.963 150.366 553.561 150.641C553.159 150.915 552.814 151.267 552.546 151.675C552.279 152.084 552.094 152.542 552.001 153.023C551.909 153.504 551.912 153.998 552.009 154.478C552.106 154.958 552.296 155.414 552.568 155.82C552.84 156.226 553.189 156.574 553.594 156.844H553.579Z" fill="#6C63FF"/>
<path opacity="0.2" d="M552.951 174.531C554.917 175.102 561.623 173.166 561.623 173.166C561.623 173.166 556.958 167.928 554.993 167.357C554.051 167.084 553.04 167.2 552.183 167.679C551.325 168.158 550.691 168.96 550.42 169.911C550.15 170.861 550.264 171.881 550.739 172.746C551.214 173.611 552.009 174.25 552.951 174.524V174.531Z" fill="#6C63FF"/>
<path opacity="0.2" d="M554.657 191.787C556.492 192.682 563.435 191.926 563.435 191.926C563.435 191.926 559.711 185.971 557.876 185.076C556.993 184.645 555.976 184.586 555.05 184.912C554.124 185.237 553.363 185.921 552.936 186.812C552.51 187.703 552.451 188.728 552.774 189.663C553.096 190.597 553.774 191.364 554.657 191.795V191.787Z" fill="#6C63FF"/>
<path opacity="0.25" d="M559.459 138.909C559.841 140.93 557.302 147.494 557.302 147.494C557.302 147.494 552.569 142.319 552.195 140.298C552.012 139.326 552.22 138.321 552.772 137.503C553.324 136.686 554.175 136.123 555.138 135.939C556.102 135.755 557.098 135.965 557.908 136.522C558.719 137.078 559.276 137.937 559.459 138.909Z" fill="black"/>
<path opacity="0.25" d="M567.564 148.976C566.8 150.881 561.133 155 561.133 155C561.133 155 559.948 148.058 560.72 146.153C560.904 145.697 561.175 145.282 561.518 144.932C561.861 144.581 562.268 144.303 562.718 144.111C563.167 143.92 563.65 143.82 564.138 143.817C564.625 143.814 565.109 143.908 565.561 144.093C566.013 144.278 566.424 144.552 566.771 144.897C567.118 145.243 567.395 145.654 567.584 146.108C567.774 146.561 567.873 147.048 567.876 147.54C567.879 148.032 567.786 148.52 567.603 148.976H567.564Z" fill="black"/>
<path opacity="0.25" d="M570.89 168.183C569.269 169.432 562.319 170.111 562.319 170.111C562.319 170.111 564.773 163.516 566.387 162.266C567.164 161.665 568.147 161.4 569.119 161.529C570.09 161.659 570.971 162.172 571.567 162.957C572.163 163.741 572.426 164.733 572.298 165.713C572.17 166.693 571.661 167.581 570.883 168.183H570.89Z" fill="black"/>
<path opacity="0.25" d="M570.164 183.286C568.78 184.829 562.044 186.642 562.044 186.642C562.044 186.642 563.351 179.7 564.743 178.219C565.073 177.859 565.469 177.569 565.91 177.365C566.351 177.161 566.828 177.046 567.313 177.027C567.798 177.008 568.282 177.086 568.737 177.256C569.192 177.426 569.609 177.685 569.965 178.018C570.321 178.351 570.609 178.751 570.812 179.196C571.014 179.641 571.128 180.121 571.146 180.611C571.165 181.1 571.088 181.588 570.919 182.047C570.751 182.506 570.494 182.927 570.164 183.286V183.286Z" fill="black"/>
<path opacity="0.25" d="M553.579 156.844C555.284 157.978 562.258 158.163 562.258 158.163C562.258 158.163 559.36 151.76 557.67 150.619C557.264 150.349 556.811 150.162 556.334 150.069C555.857 149.976 555.367 149.978 554.891 150.077C554.415 150.175 553.963 150.366 553.561 150.641C553.159 150.915 552.814 151.267 552.546 151.675C552.279 152.084 552.094 152.542 552.001 153.023C551.909 153.504 551.912 153.998 552.009 154.478C552.106 154.958 552.296 155.414 552.568 155.82C552.84 156.226 553.189 156.574 553.594 156.844H553.579Z" fill="black"/>
<path opacity="0.25" d="M552.951 174.531C554.917 175.102 561.623 173.166 561.623 173.166C561.623 173.166 556.958 167.928 554.993 167.357C554.051 167.084 553.04 167.2 552.183 167.679C551.325 168.158 550.691 168.96 550.42 169.911C550.15 170.861 550.264 171.881 550.739 172.746C551.214 173.611 552.009 174.25 552.951 174.524V174.531Z" fill="black"/>
<path opacity="0.25" d="M554.657 191.787C556.492 192.682 563.435 191.926 563.435 191.926C563.435 191.926 559.711 185.971 557.876 185.076C556.993 184.645 555.976 184.586 555.05 184.912C554.124 185.237 553.363 185.921 552.936 186.812C552.51 187.703 552.451 188.728 552.774 189.663C553.096 190.597 553.774 191.364 554.657 191.795V191.787Z" fill="black"/>
<path opacity="0.2" d="M581.42 203.072C581.42 203.072 573.506 187.475 576.954 174.23C578.437 168.684 578.096 162.802 575.983 157.468C574.959 154.944 573.707 152.519 572.244 150.225" stroke="#535461" stroke-width="2" stroke-miterlimit="10"/>
<path opacity="0.2" d="M574.393 141.856C574.775 143.877 572.236 150.441 572.236 150.441C572.236 150.441 567.503 145.265 567.128 143.244C566.946 142.273 567.154 141.267 567.706 140.45C568.258 139.633 569.109 139.07 570.072 138.886C571.036 138.702 572.032 138.911 572.842 139.468C573.653 140.025 574.21 140.884 574.393 141.856Z" fill="#6C63FF"/>
<path opacity="0.2" d="M582.498 151.923C581.734 153.828 576.067 157.947 576.067 157.947C576.067 157.947 574.882 151.005 575.654 149.099C576.026 148.179 576.744 147.444 577.652 147.058C578.56 146.672 579.582 146.665 580.495 147.04C581.407 147.414 582.135 148.139 582.518 149.055C582.901 149.97 582.908 151.002 582.536 151.923H582.498Z" fill="#6C63FF"/>
<path opacity="0.2" d="M585.824 171.13C584.203 172.379 577.253 173.058 577.253 173.058C577.253 173.058 579.707 166.463 581.321 165.213C582.098 164.612 583.081 164.346 584.053 164.476C585.024 164.605 585.905 165.119 586.501 165.904C587.097 166.688 587.36 167.679 587.232 168.66C587.103 169.64 586.594 170.528 585.817 171.13H585.824Z" fill="#6C63FF"/>
<path opacity="0.2" d="M585.098 186.233C583.714 187.776 576.977 189.589 576.977 189.589C576.977 189.589 578.285 182.646 579.677 181.165C580.343 180.44 581.267 180.012 582.247 179.974C583.226 179.936 584.18 180.293 584.899 180.965C585.618 181.637 586.043 182.569 586.08 183.557C586.118 184.546 585.764 185.508 585.098 186.233V186.233Z" fill="#6C63FF"/>
<path opacity="0.2" d="M568.513 159.79C570.218 160.924 577.191 161.109 577.191 161.109C577.191 161.109 574.293 154.707 572.603 153.565C572.198 153.295 571.744 153.109 571.268 153.016C570.791 152.923 570.301 152.925 569.825 153.023C569.349 153.121 568.897 153.313 568.495 153.588C568.093 153.862 567.748 154.213 567.48 154.622C567.213 155.031 567.027 155.489 566.935 155.97C566.843 156.451 566.846 156.945 566.943 157.425C567.04 157.905 567.23 158.361 567.502 158.767C567.774 159.173 568.123 159.52 568.528 159.79H568.513Z" fill="#6C63FF"/>
<path opacity="0.2" d="M567.885 177.47C569.851 178.041 576.557 176.105 576.557 176.105C576.557 176.105 571.892 170.867 569.927 170.296C568.985 170.023 567.974 170.139 567.117 170.618C566.259 171.097 565.625 171.899 565.354 172.85C565.084 173.8 565.198 174.82 565.673 175.685C566.148 176.55 566.943 177.189 567.885 177.463V177.47Z" fill="#6C63FF"/>
<path opacity="0.2" d="M569.614 194.734C571.449 195.628 578.392 194.873 578.392 194.873C578.392 194.873 574.668 188.918 572.833 188.023C572.396 187.809 571.921 187.685 571.436 187.657C570.951 187.629 570.465 187.697 570.007 187.858C569.548 188.02 569.125 188.27 568.763 188.596C568.4 188.922 568.105 189.317 567.893 189.758C567.682 190.199 567.559 190.678 567.531 191.167C567.503 191.657 567.571 192.147 567.73 192.609C567.89 193.072 568.139 193.498 568.462 193.864C568.785 194.23 569.176 194.528 569.614 194.741V194.734Z" fill="#6C63FF"/>
<path opacity="0.1" d="M613.016 60.522L611.67 60.7766C611.92 60.7285 612.14 60.5824 612.283 60.3705C612.425 60.1586 612.479 59.8981 612.431 59.6465C612.383 59.3949 612.238 59.1726 612.028 59.0287C611.818 58.8848 611.56 58.8309 611.311 58.879L600.414 60.954C600.165 61.0021 599.945 61.1481 599.802 61.36C599.659 61.572 599.606 61.8324 599.653 62.084C599.701 62.3357 599.846 62.5579 600.056 62.7018C600.266 62.8458 600.524 62.8996 600.774 62.8516L602.119 62.597C601.996 62.6208 601.878 62.6689 601.773 62.7386C601.668 62.8083 601.578 62.8981 601.507 63.0031C601.436 63.108 601.387 63.226 601.361 63.3502C601.336 63.4744 601.335 63.6025 601.359 63.7271C601.382 63.8517 601.43 63.9704 601.499 64.0764C601.568 64.1824 601.657 64.2736 601.761 64.3449C601.865 64.4162 601.982 64.466 602.105 64.4917C602.228 64.5174 602.355 64.5184 602.479 64.4946L600.598 64.8571C600.348 64.9052 600.128 65.0513 599.985 65.2632C599.843 65.4751 599.789 65.7356 599.837 65.9872C599.885 66.2388 600.029 66.4611 600.24 66.605C600.45 66.7489 600.708 66.8028 600.957 66.7547L611.854 64.6797C611.977 64.6559 612.095 64.6078 612.2 64.5381C612.305 64.4685 612.395 64.3786 612.466 64.2736C612.537 64.1687 612.586 64.0508 612.612 63.9265C612.637 63.8023 612.638 63.6743 612.614 63.5497C612.591 63.4251 612.543 63.3064 612.474 63.2004C612.405 63.0944 612.316 63.0031 612.212 62.9318C612.108 62.8606 611.991 62.8107 611.868 62.785C611.745 62.7593 611.618 62.7583 611.494 62.7821L613.375 62.4196C613.499 62.3958 613.616 62.3477 613.722 62.278C613.827 62.2083 613.917 62.1185 613.988 62.0135C614.058 61.9086 614.108 61.7906 614.133 61.6664C614.159 61.5422 614.16 61.4141 614.136 61.2895C614.113 61.1649 614.065 61.0462 613.996 60.9402C613.927 60.8342 613.838 60.743 613.734 60.6717C613.63 60.6005 613.513 60.5506 613.39 60.5249C613.266 60.4992 613.139 60.4982 613.016 60.522Z" fill="#252223"/>
<path opacity="0.1" d="M593.28 79.3975L591.934 79.652C592.058 79.6282 592.175 79.5801 592.28 79.5105C592.385 79.4408 592.476 79.3509 592.546 79.246C592.617 79.141 592.667 79.0231 592.692 78.8989C592.718 78.7746 592.718 78.6466 592.695 78.522C592.671 78.3974 592.624 78.2787 592.554 78.1727C592.485 78.0667 592.396 77.9755 592.292 77.9042C592.188 77.8329 592.071 77.783 591.948 77.7573C591.825 77.7316 591.698 77.7307 591.575 77.7545L580.655 79.8295C580.406 79.8776 580.186 80.0236 580.043 80.2355C579.9 80.4475 579.847 80.7079 579.895 80.9595C579.942 81.2112 580.087 81.4334 580.297 81.5773C580.507 81.7213 580.765 81.7751 581.015 81.7271L582.361 81.4725C582.237 81.4963 582.119 81.5444 582.014 81.6141C581.909 81.6838 581.819 81.7736 581.748 81.8786C581.677 81.9835 581.628 82.1015 581.603 82.2257C581.577 82.3499 581.576 82.478 581.6 82.6026C581.623 82.7272 581.671 82.8458 581.74 82.9518C581.809 83.0579 581.898 83.1491 582.002 83.2204C582.106 83.2916 582.223 83.3416 582.346 83.3672C582.469 83.3929 582.596 83.3939 582.72 83.3701L580.839 83.7326C580.715 83.7564 580.598 83.8046 580.493 83.8742C580.388 83.9439 580.297 84.0338 580.226 84.1387C580.156 84.2437 580.106 84.3616 580.081 84.4858C580.055 84.61 580.054 84.7381 580.078 84.8627C580.102 84.9873 580.149 85.106 580.218 85.212C580.287 85.318 580.377 85.4092 580.481 85.4805C580.585 85.5518 580.702 85.6017 580.825 85.6274C580.948 85.6531 581.075 85.654 581.198 85.6302L592.125 83.5552C592.249 83.5314 592.366 83.4833 592.471 83.4136C592.577 83.3439 592.667 83.2541 592.738 83.1491C592.808 83.0442 592.858 82.9263 592.883 82.802C592.909 82.6778 592.91 82.5497 592.886 82.4252C592.862 82.3006 592.815 82.1819 592.746 82.0759C592.677 81.9699 592.587 81.8786 592.483 81.8074C592.379 81.7361 592.263 81.6862 592.139 81.6605C592.016 81.6348 591.889 81.6338 591.766 81.6576L593.647 81.2951C593.77 81.2713 593.888 81.2232 593.993 81.1535C594.098 81.0838 594.189 80.9939 594.259 80.889C594.33 80.7841 594.379 80.6661 594.405 80.5419C594.43 80.4177 594.431 80.2896 594.408 80.165C594.384 80.0404 594.336 79.9217 594.267 79.8157C594.198 79.7097 594.109 79.6185 594.005 79.5472C593.901 79.4759 593.784 79.426 593.661 79.4004C593.538 79.3747 593.411 79.3737 593.287 79.3975H593.28Z" fill="#252223"/>
<path opacity="0.1" d="M704.745 55.2842L703.399 55.5388C703.523 55.515 703.641 55.4669 703.746 55.3972C703.851 55.3275 703.941 55.2376 704.012 55.1327C704.082 55.0278 704.132 54.9098 704.157 54.7856C704.183 54.6614 704.184 54.5333 704.16 54.4087C704.137 54.2841 704.089 54.1654 704.02 54.0594C703.951 53.9534 703.862 53.8622 703.758 53.7909C703.654 53.7196 703.537 53.6697 703.414 53.644C703.29 53.6183 703.163 53.6174 703.04 53.6412L692.151 55.7393C691.902 55.7874 691.681 55.9335 691.539 56.1454C691.396 56.3573 691.343 56.6178 691.39 56.8694C691.438 57.121 691.583 57.3433 691.793 57.4872C692.003 57.6311 692.261 57.685 692.511 57.6369L693.856 57.3824C693.733 57.4062 693.615 57.4543 693.51 57.5239C693.405 57.5936 693.315 57.6835 693.244 57.7884C693.173 57.8934 693.124 58.0113 693.098 58.1355C693.073 58.2598 693.072 58.3878 693.095 58.5124C693.119 58.637 693.167 58.7557 693.236 58.8617C693.305 58.9677 693.394 59.059 693.498 59.1302C693.602 59.2015 693.719 59.2514 693.842 59.2771C693.965 59.3028 694.092 59.3037 694.216 59.2799L692.296 59.5962C692.047 59.6443 691.827 59.7904 691.684 60.0023C691.541 60.2142 691.488 60.4746 691.536 60.7263C691.583 60.9779 691.728 61.2001 691.938 61.3441C692.148 61.488 692.406 61.5419 692.656 61.4938L703.552 59.4188C703.676 59.395 703.793 59.3469 703.898 59.2772C704.004 59.2075 704.094 59.1177 704.165 59.0127C704.235 58.9078 704.285 58.7898 704.31 58.6656C704.336 58.5414 704.337 58.4133 704.313 58.2887C704.29 58.1641 704.242 58.0454 704.173 57.9394C704.104 57.8334 704.015 57.7422 703.911 57.6709C703.807 57.5997 703.69 57.5497 703.566 57.5241C703.443 57.4984 703.316 57.4974 703.193 57.5212L705.074 57.1587C705.197 57.1349 705.315 57.0867 705.42 57.0171C705.525 56.9474 705.616 56.8575 705.686 56.7526C705.757 56.6476 705.806 56.5297 705.832 56.4055C705.857 56.2813 705.858 56.1532 705.835 56.0286C705.811 55.904 705.763 55.7853 705.694 55.6793C705.625 55.5733 705.536 55.4821 705.432 55.4108C705.328 55.3395 705.211 55.2896 705.088 55.2639C704.965 55.2382 704.838 55.2373 704.715 55.2611L704.745 55.2842Z" fill="#252223"/>
<path opacity="0.3" d="M561.083 89.3647C566.589 88.3151 570.21 82.9611 569.169 77.4061C568.129 71.8511 562.821 68.1988 557.315 69.2484C551.808 70.298 548.187 75.6521 549.228 81.2071C550.268 86.7621 555.576 90.4144 561.083 89.3647Z" fill="#6C63FF"/>
<path opacity="0.05" d="M619.745 132.252C619.745 132.252 624.845 136.796 627.223 140.83C629.601 144.864 628.844 146.23 628.844 146.23" fill="black"/>
</g>
</g>
<defs>
<linearGradient id="paint0_linear" x1="651.021" y1="182.975" x2="634.573" y2="96.6805" gradientUnits="userSpaceOnUse">
<stop stop-color="#808080" stop-opacity="0.25"/>
<stop offset="0.54" stop-color="#808080" stop-opacity="0.12"/>
<stop offset="1" stop-color="#808080" stop-opacity="0.1"/>
</linearGradient>
<linearGradient id="paint1_linear" x1="45911.9" y1="23954.5" x2="45911.9" y2="17725.3" gradientUnits="userSpaceOnUse">
<stop stop-color="#808080" stop-opacity="0.25"/>
<stop offset="0.54" stop-color="#808080" stop-opacity="0.12"/>
<stop offset="1" stop-color="#808080" stop-opacity="0.1"/>
</linearGradient>
<clipPath id="clip0">
<rect width="794.272" height="437" fill="white"/>
</clipPath>
</defs>
</svg>
