<svg width="80" height="85" viewBox="0 0 80 85" fill="none" xmlns="http://www.w3.org/2000/svg">
<path d="M79.5118 79.0382L56.2723 54.6368C60.6802 48.923 63.3335 41.659 63.3335 33.7501C63.3335 15.4161 49.1276 0.5 31.6666 0.5C14.2057 0.5 0 15.4161 0 33.7501C0 52.0842 14.2058 67.0003 31.6668 67.0003C39.199 67.0003 46.1172 64.2142 51.5589 59.5861L74.7983 83.9875C75.4494 84.6709 76.5044 84.6709 77.1555 83.9875L79.5119 81.5131C80.1627 80.8296 80.1627 79.7216 79.5118 79.0382ZM31.6668 60.0002C17.881 60.0002 6.66674 48.2253 6.66674 33.7501C6.66674 19.275 17.881 7.50007 31.6668 7.50007C45.4526 7.50007 56.6669 19.275 56.6669 33.7501C56.6669 48.2253 45.4526 60.0002 31.6668 60.0002Z" fill="white"/>
</svg>
