<svg width="97" height="73" viewBox="0 0 97 73" fill="none" xmlns="http://www.w3.org/2000/svg">
<path d="M93.993 29.6247L63.6805 2.3374C59.946 -1.02122 54.1927 -0.730223 50.8341 3.0164C47.4754 6.74484 47.7786 12.4982 51.5131 15.8568L64.5 29.3902L9.09375 28.8374C4.06794 28.8374 0 31.3525 0 36.3783C0 41.4042 4.06794 43.8767 9.09375 43.8767L64.214 44.8374L51.507 56.8999C47.7725 60.2646 47.4694 66.0119 50.828 69.7403C52.6286 71.7349 55.1081 72.7534 57.5938 72.7534C59.7641 72.7534 61.9406 71.9834 63.6744 70.4193L93.9869 43.1441C95.9027 41.4224 97 38.961 97 36.3844C97 33.8078 95.9027 31.3465 93.993 29.6247Z" fill="white"/>
</svg>
