<svg width="981" height="492" viewBox="0 0 981 492" fill="none" xmlns="http://www.w3.org/2000/svg">
<path d="M1037.18 63.6402C1072.68 63.6402 1101.45 34.8643 1101.45 -0.632706C1101.45 -36.1297 1072.68 -64.9056 1037.18 -64.9056C1001.68 -64.9056 972.906 -36.1297 972.906 -0.632706C972.906 34.8643 1001.68 63.6402 1037.18 63.6402Z" fill="#F2F2F2"/>
<path d="M981.176 -1H0V491.924H981.176V-1Z" fill="#120917"/>
<path opacity="0.1" d="M703.849 142.021H335.908V394.323H703.849V142.021Z" fill="black"/>
<path d="M89.4454 29.8862C95.8964 29.8862 101.126 24.6566 101.126 18.2056C101.126 11.7545 95.8964 6.5249 89.4454 6.5249C82.9943 6.5249 77.7647 11.7545 77.7647 18.2056C77.7647 24.6566 82.9943 29.8862 89.4454 29.8862Z" fill="#8716D1"/>
<path d="M125.655 29.8862C132.107 29.8862 137.336 24.6566 137.336 18.2056C137.336 11.7545 132.107 6.5249 125.655 6.5249C119.204 6.5249 113.975 11.7545 113.975 18.2056C113.975 24.6566 119.204 29.8862 125.655 29.8862Z" fill="#8716D1"/>
<path d="M161.866 29.8862C168.317 29.8862 173.546 24.6566 173.546 18.2056C173.546 11.7545 168.317 6.5249 161.866 6.5249C155.414 6.5249 150.185 11.7545 150.185 18.2056C150.185 24.6566 155.414 29.8862 161.866 29.8862Z" fill="#8716D1"/>
<path d="M196.908 182.903H173.546V206.264H196.908V182.903Z" fill="#8716D1"/>
<path d="M908.26 386.147H884.899V409.508H908.26V386.147Z" fill="#8716D1"/>
<path d="M825.893 223.711L807.732 238.405L822.426 256.566L840.587 241.872L825.893 223.711Z" fill="#8716D1"/>
<path d="M230.782 463.239L220.351 492.441H196.908V462.655C198.636 425.289 219.603 407.721 220.257 407.184C204.5 422.38 206.252 474.92 206.252 474.92C216.765 429.365 226.109 428.197 226.109 428.197C220.456 436.689 217.536 475.317 217.36 477.723C218.061 469.605 230.782 463.239 230.782 463.239Z" fill="#8716D1"/>
<path d="M956.151 467.211V492.441H938.128L929.286 467.666C929.286 467.666 939.366 472.712 939.927 479.148C939.787 477.163 937.474 446.606 932.988 439.878C932.988 439.878 940.406 440.801 948.746 476.929C948.746 476.929 950.124 435.264 937.637 423.209C938.163 423.642 954.785 437.565 956.151 467.211Z" fill="#8716D1"/>
<path d="M640.715 394.318H612.305L612.115 391.988L610.045 366.018V366.008L607.895 339.008L621.005 283.318L632.145 294.458V347.528C632.145 347.528 638.695 357.358 637.385 359.978C636.075 362.598 634.765 362.598 636.075 364.558C637.385 366.528 638.695 367.838 637.385 369.148C636.747 370 636.403 371.035 636.403 372.098C636.403 373.162 636.747 374.197 637.385 375.048C638.695 376.358 641.315 378.318 639.345 380.288C637.385 382.248 634.765 380.938 637.385 388.148C637.865 389.481 638.468 390.766 639.185 391.988C639.652 392.792 640.163 393.57 640.715 394.318V394.318Z" fill="#D0CDE1"/>
<path d="M553.189 214.847L549.258 254.159L589.225 260.056L592.173 237.452L595.122 214.847H553.189Z" fill="#FFB9B9"/>
<path opacity="0.1" d="M553.189 214.847L549.258 254.159L589.225 260.056L592.173 237.452L595.122 214.847H553.189Z" fill="black"/>
<path d="M575.138 227.624C592.507 227.624 606.588 213.543 606.588 196.174C606.588 178.805 592.507 164.724 575.138 164.724C557.769 164.724 543.688 178.805 543.688 196.174C543.688 213.543 557.769 227.624 575.138 227.624Z" fill="#FFB9B9"/>
<path d="M495.665 394.318C495.555 394.088 495.435 393.848 495.315 393.588C495.085 393.098 494.835 392.568 494.565 391.988C492.825 388.108 490.695 382.588 491.925 380.938C493.895 378.318 494.545 375.698 493.235 374.388C491.925 373.078 487.995 375.698 491.925 372.418C495.855 369.148 497.165 371.108 495.855 367.178C494.545 363.248 491.925 365.218 494.545 363.248C497.165 361.288 499.135 361.938 497.825 359.978C496.515 358.008 493.895 358.008 496.515 356.698C499.135 355.388 501.105 356.698 500.445 353.418C499.785 350.148 499.135 351.458 500.445 350.148C500.785 349.808 501.975 346.508 503.565 341.798C508.015 328.488 515.515 303.938 515.515 302.968C515.515 301.658 505.035 260.388 505.035 260.388L500.445 257.758C500.445 257.758 480.135 271.518 473.585 302.318C467.025 333.108 462.445 340.978 462.445 340.978C462.445 340.978 455.895 342.288 460.475 346.868C465.065 351.458 465.065 350.798 461.135 353.418C457.205 356.038 454.585 350.798 457.205 356.038C459.825 361.288 463.095 359.978 460.475 363.248C457.855 366.528 453.275 366.528 455.895 369.148C458.515 371.768 453.275 377.668 456.545 380.288C459.825 382.908 461.135 383.558 461.135 388.148C461.136 389.435 461.24 390.719 461.445 391.988C461.558 392.774 461.718 393.552 461.925 394.318C462.075 394.928 462.225 395.388 462.325 395.678L495.665 394.318Z" fill="#D0CDE1"/>
<path d="M495.665 394.318H498.335L498.475 393.388L495.315 393.588L483.825 394.318L462.325 395.678L495.665 394.318Z" fill="#3F3D56"/>
<path d="M509.615 366.528L503.725 346.218L503.565 341.798L500.445 257.758L539.105 244.008L545.655 238.758C545.655 238.758 546.965 223.688 548.935 222.378C549.645 221.908 550.785 222.458 552.295 223.738C554.945 225.988 558.745 230.478 563.345 235.488C570.555 243.348 585.625 242.038 590.205 239.418C590.794 239.075 591.406 238.771 592.035 238.508C595.325 237.148 596.755 238.108 596.755 238.108C600.035 240.728 592.175 249.248 592.175 249.248C592.175 249.248 594.795 255.138 611.825 261.038C628.865 266.938 632.145 294.458 632.145 294.458C632.145 294.458 611.825 349.488 612.485 353.418C613.045 356.788 610.725 364.008 610.045 366.008V366.018C609.935 366.338 609.865 366.528 609.865 366.528L611.355 391.988L611.495 394.318H512.385C512.09 393.508 511.719 392.728 511.275 391.988C511.165 391.808 511.045 391.618 510.925 391.428C505.035 382.248 509.615 366.528 509.615 366.528Z" fill="#D0CDE1"/>
<path d="M543.47 200.203C543.47 200.203 540.204 195.304 541.461 190.028C542.211 187.033 542.508 183.942 542.34 180.859C542.34 180.859 544.978 172.317 547.615 167.544C550.253 162.771 548.997 160.761 557.287 159.254C565.578 157.746 562.186 146.944 584.043 158.626C584.78 159.655 585.806 160.443 586.991 160.89C588.176 161.337 589.466 161.423 590.7 161.138C595.222 160.258 596.855 166.539 596.855 166.539C596.855 166.539 599.87 164.78 601 167.293C602.131 169.805 610.191 165.785 610.191 182.742C610.191 199.7 601.018 214.847 601.018 214.847C601.018 214.847 601.691 186.323 586.743 183.434C571.796 180.545 555.717 172.129 551.823 182.931C549.722 188.994 546.918 194.791 543.47 200.203Z" fill="#2F2E41"/>
<path d="M601.346 206.985C602.974 206.985 604.294 205.225 604.294 203.054C604.294 200.882 602.974 199.122 601.346 199.122C599.718 199.122 598.398 200.882 598.398 203.054C598.398 205.225 599.718 206.985 601.346 206.985Z" fill="#FFB9B9"/>
<path d="M335.905 123.328V394.318H765.755V123.328H335.905ZM763.425 391.988H338.245V125.668H763.425V391.988Z" fill="white"/>
</svg>
